# xmcd
#
# Track frame offsets:
#	150
#	12891
#	20779
#	38472
#	53432
#	64631
#	75092
#	83915
#	99208
#	110511
#	118443
#	128020
#	137791
#	151412
#	163066
#	172907
#	184073
#	193933
#	204207
#
# Disc length: 2906 seconds
#
# Revision: 0
# Processed by: cddbd v1.5.2PL0 Copyright (c) Steve Scherf et al.
# Submitted via: EZCDAudioConverter 7.0.6.1
#
DISCID=ea0b5813
DTITLE=Craig Smith - Love Is Our Existence
DYEAR=1900
DGENRE=
TTITLE0=Love Is Our Existence
TTITLE1=Seasons
TTITLE2=It's All Love [Version 2]
TTITLE3=Rainbow Colors
TTITLE4=Race The Wind
TTITLE5=When I Find God
TTITLE6=Sky
TTITLE7=Jupiter's Queen
TTITLE8=Aspects Of Love
TTITLE9=Now My World Is Changing
TTITLE10=She Brought Me Something Beautiful
TTITLE11=Now's The Time
TTITLE12=Country Girl
TTITLE13=It's All Love [Version 1]
TTITLE14=I Know I Like You
TTITLE15=Subtract One From One
TTITLE16=Sugarless Gum
TTITLE17=A Father's Christmas
TTITLE18=Waves
EXTD=
EXTT0=
EXTT1=
EXTT2=
EXTT3=
EXTT4=
EXTT5=
EXTT6=
EXTT7=
EXTT8=
EXTT9=
EXTT10=
EXTT11=
EXTT12=
EXTT13=
EXTT14=
EXTT15=
EXTT16=
EXTT17=
EXTT18=
PLAYORDER=
